<svg width="314" height="324" viewBox="0 0 314 324" fill="none" xmlns="http://www.w3.org/2000/svg">
<path d="M140.218 244.917C142.501 225.104 134.209 192.151 131.23 183.095C128.456 174.665 125.408 161.959 125.346 156.015V155.971C125.339 155.58 125.35 155.19 125.38 154.801C125.36 153.737 125.051 152.705 124.495 151.842L122.966 158.757L119.045 149.982L120.455 146.371C120.032 145.892 119.599 145.406 119.153 144.927C116.044 141.646 112.788 138.542 109.4 135.628V134.349L78.0107 142.658C78.0107 142.658 63.7429 154.162 73.913 183.561C76.4356 190.854 74.7634 197.865 70.4887 201.674C66.2141 205.483 59.4226 221.698 67.5096 232.186C75.5966 242.674 74.3182 255.539 70.9339 263.643C67.5496 271.747 61.5685 283.187 74.7634 297.964H93.0661C93.0661 297.964 99.0243 280.803 102.854 271.76C105.371 265.816 108.983 253.296 110.085 237.989C110.279 238.315 110.479 238.628 110.655 238.954C112.299 241.549 114.08 243.907 115.649 246.202C121.356 254.51 118.434 256.511 115.455 273.684C112.476 290.857 123.668 297.325 123.668 297.325L139.077 296.686C142.056 290.013 138.586 259.099 140.218 244.917Z" fill="black"/>
<path d="M77.4398 142.907V130.834H79.1519V140.491L107.722 133.065L105.062 124.405L106.677 123.785L109.959 134.452L77.4398 142.907Z" fill="black"/>
<path d="M122.349 132.47L121.276 133.793L116.385 139.833L120.86 140.555L119.148 144.927L117.15 150.04L123.502 164.273L125.34 156.022V155.977L127.937 144.243L128.29 142.632L122.349 132.47ZM124.495 151.842L122.966 158.757L119.045 149.982L120.455 146.371L123.308 139.008L119.798 138.452L122.11 135.589L126.436 142.971L124.495 151.842Z" fill="black"/>
<path d="M81.7261 299.006C76.7723 294.148 77.383 276.343 81.5891 269.606C85.1846 263.854 87.7756 241.894 79.4489 233.815C76.6981 231.15 75.2085 227.91 75.0259 224.229C74.6492 216.668 79.6658 208.89 83.9461 203.707C90.3438 195.941 85.5384 181.842 85.4871 181.702L87.0851 180.999C87.3019 181.638 92.3356 196.338 85.2017 205.01C81.8859 209.037 76.3728 216.872 76.7323 224.12C76.92 227.358 78.3111 230.36 80.5675 232.397C89.6989 241.268 86.9367 264.423 82.9931 270.744C79.2948 276.656 78.5986 293.426 82.8561 297.587L81.7261 299.006Z" fill="white"/>
<path d="M93.905 298.066L92.364 297.222C104.349 269.74 108.43 246.163 109.759 231.24C111.471 212.143 109.445 198.824 107.191 193.225C101.992 180.276 105.839 163.87 106.004 163.186L107.659 163.685C107.619 163.845 103.807 180.129 108.755 192.445C113.629 204.563 116.408 246.336 93.905 298.066Z" fill="white"/>
<path d="M89.2477 316.498L96.0963 296.686H71.1162L72.2576 321.611L72.3432 323.529H75.4821L76.0528 321.611L76.6692 319.553L79.6483 322.89H96.2732V316.498H89.2477ZM75.9216 316L74.2551 321.611H73.9697L72.9196 298.603H93.5965L86.748 318.416H94.561V320.972H80.3617L75.9216 316Z" fill="black"/>
<path d="M136.047 315.859L142.895 296.047H117.915L119.102 321.611L119.159 322.89H122.298L122.681 321.611L123.485 318.914L126.464 322.25H143.072V315.859H136.047ZM122.721 315.361L121.054 320.972H120.769L119.719 297.964H140.396L133.547 317.777H141.36V320.333H127.161L122.721 315.361Z" fill="black"/>
<path d="M314 321.611H50.9016V323.529H314V321.611Z" fill="black"/>
<path d="M28.359 323.529C30.0711 324.168 65.6265 323.529 65.6265 323.529C65.6265 323.529 67.1675 312.024 56.8946 308.829C46.6218 305.633 48.3339 306.272 47.7632 290.294C47.1925 274.316 44.339 249.391 35.7783 262.173C27.2176 274.956 31.7833 290.294 23.7933 297.964C15.8033 305.633 12.3791 309.468 12.3791 323.529H28.359Z" fill="black"/>
<path d="M190.316 38.0148L156.375 65.1902L132.103 27.1754L166.049 0L190.316 38.0148Z" fill="#CEC1EA"/>
<path d="M119.593 77.5252C114.258 71.3874 106.749 68.2475 99.127 68.9674L90.2068 69.7983L90.3495 71.7156L99.264 70.8784C106.378 70.1992 113.388 73.129 118.366 78.861L156.427 122.526L133.187 149.158L119.998 128.476L132.131 118.122L109.343 94.5641L105.348 80.0625L103.716 80.6249L114.559 120.154L71.7556 132.01C72.0809 122.621 73.1881 90.0903 72.8685 88.4478L71.1906 88.8376C71.2877 89.5534 71.1906 95.2863 70.9623 102.898L35.9377 100.476L8.09266 59.0483L31.1209 46.464L45.8396 78.1579L76.8978 75.0902L76.7494 73.1728L46.8326 76.1319L31.8743 43.9203L5.47309 58.3452L34.8077 102.01L35.0474 102.368L70.8996 104.835C70.6485 113.687 70.2889 124.59 69.9864 133.212L69.9408 134.49L116.739 121.535L110.347 98.2135L129.478 117.988L117.641 128.086L132.987 152.142L158.824 122.526L119.593 77.5252Z" fill="black"/>
<path d="M14.3477 54.926L4.09772 43.6391L11.4142 46.17L0 33.9437L13.8455 33.5794L25.4024 49.2059L24.0841 50.4266L13.0579 35.5223L4.1662 35.7524L17.8405 50.401L10.3185 47.7998L15.5519 53.5583L14.3477 54.926Z" fill="black"/>
<path d="M107.117 101.115C100.269 95.363 106.547 92.1674 112.254 84.498C117.961 76.8285 107.688 77.4677 102.552 74.9112C97.4152 72.3547 101.981 71.7156 103.693 65.3244C105 60.4415 98.9904 54.8237 96.074 52.4333L98.8363 52.5292C98.8363 52.5292 103.693 39.6126 85.8069 39.6382C85.8069 39.6382 80.6363 38.2129 79.706 42.7251V42.8082C78.8271 47.4226 73.9646 46.0038 72.3895 48.4708C70.8143 50.9378 71.5334 52.2352 72.2069 55.2135C72.8803 58.1918 70.6431 57.2715 68.7141 58.8948C66.7851 60.5182 64.2797 62.7296 67.6183 64.5574L77.7599 66.9541L75.8765 71.0765C75.4119 72.0974 75.3438 73.2878 75.6884 74.3668C76.033 75.4459 76.7597 76.318 77.6971 76.7774L85.5558 80.6121C86.026 80.8408 86.5328 80.9603 87.0454 80.9636C87.4332 80.965 87.8187 80.8959 88.1868 80.7591C86.4119 82.3761 82.3884 84.8239 86.5945 88.3519C91.1602 92.1866 94.0138 88.991 90.5895 92.1866C87.1652 95.3822 86.5945 102.412 91.1602 106.886C95.7259 111.36 93.4431 109.443 90.0188 113.278C86.5945 117.112 92.3016 123.503 92.3016 123.503C92.3016 123.503 105.999 120.308 112.847 116.473C119.696 112.638 113.966 106.867 107.117 101.115ZM87.2166 64.6022C87.0952 63.9291 86.7781 63.32 86.3149 62.8702C84.1119 60.6844 82.2742 58.9332 83.8266 57.297C85.3789 55.6609 85.0593 53.539 83.9749 51.8134C83.9642 51.7973 83.9546 51.7802 83.9464 51.7623C83.7048 51.341 83.7631 50.7872 84.0854 50.4403C84.4077 50.0933 84.9041 50.0501 85.2705 50.337L87.5533 52.1457L93.8825 52.363C94.3334 56.0444 94.4532 61.5728 91.7195 64.2379C91.032 64.9295 90.1167 65.2658 89.197 65.1646C88.5142 65.0975 87.8455 64.9076 87.2166 64.6022ZM86.2407 78.8354L78.382 75.0007C77.8753 74.7544 77.4822 74.2842 77.2963 73.7018C77.1103 73.1194 77.148 72.4767 77.4003 71.9265L79.4834 67.3696L86.332 68.9865C86.7172 68.2505 87.0001 67.4532 87.1709 66.6218C87.6279 66.7987 88.0976 66.9313 88.5749 67.018L89.0315 76.6624C89.0668 77.4372 88.7421 78.1775 88.1729 78.6198C87.6036 79.0621 86.8708 79.1436 86.235 78.8354H86.2407Z" fill="black"/>
<path d="M255.194 209.126H253.219V205.931H240.093V189.953H238.951V187.396H181.309V189.953H180.739V205.931H163.617V209.305C157.375 210.425 152.781 216.452 152.774 223.532V304.01C152.78 311.963 158.536 318.409 165.638 318.416H255.194C262.296 318.409 268.051 311.963 268.058 304.01V223.532C268.051 215.579 262.296 209.133 255.194 209.126ZM251.507 207.848V211.683H227.537V207.848H251.507ZM182.451 192.19H238.381V205.931H225.825V209.126H191.012V205.931H182.451V192.19ZM165.329 207.848H189.299V211.683H165.329V207.848ZM165.638 316.498C159.483 316.488 154.495 310.903 154.486 304.01V223.532C154.495 217.512 158.332 212.353 163.617 211.255V213.6H171.607V316.498H165.638ZM173.319 316.498V213.6H183.592V316.498H173.319ZM185.304 316.498V213.6H191.012V211.044H225.825V213.6H232.103V316.498H185.304ZM233.815 316.498V213.6H244.088V316.498H233.815ZM266.346 304.01C266.336 310.903 261.349 316.488 255.194 316.498H245.8V213.6H253.219V211.044H255.194C261.349 211.054 266.336 216.639 266.346 223.532V304.01Z" fill="black"/>
<path d="M209.274 233.413H190.441V246.834H209.274V233.413ZM207.562 244.917H192.153V235.33H207.562V244.917Z" fill="black"/>
<path d="M209.275 261.534C203.613 261.534 199.002 266.979 199.002 273.677C199.002 280.375 203.613 285.821 209.275 285.821C214.936 285.821 219.547 280.375 219.547 273.677C219.547 266.979 214.936 261.534 209.275 261.534ZM209.275 283.903C204.555 283.903 200.714 279.314 200.714 273.677C200.714 268.04 204.555 263.451 209.275 263.451C213.994 263.451 217.835 268.04 217.835 273.677C217.835 279.314 213.994 283.903 209.275 283.903Z" fill="black"/>
<path d="M212.47 110.868L207.927 131.499L198.448 128.885L195.417 142.658L176.995 137.57L181.538 116.94L191.012 119.554L194.048 105.781L212.47 110.868Z" fill="#BE7880"/>
<path d="M172.949 60.6844L160.707 39.8108L143.511 52.4589L133.404 59.8919L151.204 90.2501L178.502 70.1753L172.949 60.6844ZM135.772 60.4415L144.504 54.0503L160.193 42.4695L171.533 61.8029L176.099 69.6129L151.661 87.5849L135.772 60.4415Z" fill="black"/>
</svg>
