<svg width="338" height="309" viewBox="0 0 338 309" fill="none" xmlns="http://www.w3.org/2000/svg">
<path d="M161.842 140.8H137.648V155.226H161.842V140.8Z" fill="black"/>
<path d="M155.655 94.1951C155.655 94.1951 132.868 110.3 146.002 138.231C146.002 138.231 158.325 149.085 153.478 167.362C148.631 185.64 156.934 205.84 167.993 214.521C167.993 214.521 176.291 227.025 172.142 246.267C167.993 265.509 172.281 262.88 172.281 262.88H226.98L174.201 143.311L177.657 123.112L155.655 94.1951Z" fill="black"/>
<path d="M217.866 243.459L234.061 153.522L176.035 131.515L167.989 136.738L217.866 243.459Z" fill="black"/>
<path d="M206.981 16.9764C206.292 16.7981 205.589 16.75 204.891 16.8335C205.733 12.4606 206.339 6.28 205.26 2.77883C203.653 -2.45149 189.174 -0.207881 184.347 8.74511C180.455 15.9832 195.356 19.7845 201.302 20.9849C200.552 26.2938 195.998 24.8576 194.591 27.7943C193.184 30.731 193.882 32.2315 194.591 35.6541C195.299 39.0767 193.174 38.1121 191.407 40.0842C189.641 42.0562 187.336 44.7643 190.519 46.7364L208.218 51.1664C208.566 50.2712 208.813 49.3075 208.952 48.3083C209.07 48.3583 209.183 48.4084 209.301 48.4441C209.769 48.6234 210.249 48.7312 210.734 48.7656H210.965C212.174 48.7928 213.343 48.1592 214.22 47.0008C217.173 43.1852 217.014 36.1686 216.48 31.4384H219.56C219.56 31.4384 223.796 16.2333 206.981 16.9764ZM213.173 45.4931C212.539 46.3407 211.679 46.7811 210.801 46.7078C210.165 46.6559 209.539 46.4629 208.947 46.1362C208.821 45.3361 208.504 44.6187 208.049 44.0998C205.923 41.6347 204.157 39.6626 205.569 37.6691C206.981 35.6755 206.631 33.239 205.569 31.2383L205.522 31.2026C205.285 30.7186 205.327 30.069 205.621 29.6505C205.916 29.232 206.381 29.1609 206.734 29.4806L208.916 31.5027H214.903C215.427 35.797 215.679 42.2563 213.173 45.4931Z" fill="black"/>
<path d="M333.297 206.761C330.375 191.263 323.936 180.274 315.161 175.808C306.386 171.342 296.374 173.965 286.957 183.182C285.135 184.972 283.402 186.932 281.771 189.048L267.687 134.173C264.962 123.617 258.462 115.819 250.558 113.623C249.585 113.352 248.6 113.17 247.611 113.08L248.478 113.609L247.421 115.216C248.062 115.266 248.699 115.359 249.325 115.495C257.09 117.163 263.577 124.606 266.234 134.894L275.445 170.785L275.122 170.521L236.196 261.78H148.847C149.329 260.201 149.791 258.579 150.223 256.935C156.025 234.849 155.547 212.478 150.074 196.508L154.104 189.648L152.913 188.291L149.319 194.414C145.966 185.704 141.032 179.145 134.752 175.944C116.874 166.855 94.7332 188.384 85.3882 223.953C81.6143 238.322 80.5001 252.82 81.6913 265.595C83.4473 284.43 90.2147 299.521 100.864 304.944C101.741 305.388 102.636 305.76 103.544 306.059C104.058 306.245 104.571 306.395 105.12 306.516C106.54 306.857 107.978 307.027 109.418 307.023C111.491 307.017 113.558 306.691 115.58 306.052C121.525 304.201 127.451 299.764 132.822 293.247C138.901 285.881 144.277 275.856 148.174 263.952H237.074L275.953 172.793L280.575 190.692C274.161 199.487 268.924 211.041 265.474 224.181C261.058 240.994 260.252 257.978 262.506 272.212C265.001 287.981 271.235 300.371 280.477 305.444L280.77 305.602L281.062 305.752C282.769 306.603 284.537 307.193 286.336 307.509C287.434 307.704 288.54 307.802 289.647 307.802C290.849 307.801 292.05 307.688 293.242 307.466C295.423 307.069 297.567 306.35 299.639 305.323C312.353 299.042 324.45 281.386 330.755 257.378C335.289 240.087 336.198 222.109 333.297 206.761ZM149.006 198.33C154.017 213.699 154.325 235.078 148.775 256.206C148.261 258.107 147.748 259.972 147.168 261.787H111.693L149.006 198.33ZM101.388 302.936C84.3099 294.248 77.7685 259.15 86.831 224.696C94.497 195.508 110.923 176.037 126.152 176.037C128.903 176.025 131.634 176.691 134.218 178.002C140.328 181.11 145.088 187.598 148.272 196.229L108.443 263.923H146.474C136.472 293.719 117.151 310.953 101.388 302.936ZM329.302 256.635C322.17 283.787 307.506 302.636 293.221 305.351C292.051 305.579 290.87 305.693 289.688 305.694C288.594 305.696 287.502 305.594 286.418 305.387C284.76 305.074 283.132 304.513 281.56 303.715C264.354 294.962 257.777 259.6 266.896 224.896C270.172 212.406 275.111 201.388 281.119 192.9L292.091 235.657L293.545 234.942L282.331 191.249C284.055 188.96 285.898 186.851 287.845 184.94C294.007 178.916 300.389 175.837 306.468 175.837C309.252 175.826 312.016 176.498 314.632 177.823C322.92 182.039 329.009 192.507 331.808 207.304C334.626 222.238 333.738 239.758 329.302 256.635Z" fill="black"/>
<path d="M240.36 117.632L238.82 116.202V135.245H240.36V117.632Z" fill="black"/>
<path d="M270.958 153.751H233.989V155.894H270.958V153.751Z" fill="black"/>
<path d="M220.854 273.126L215.93 265.302L208.603 269.69L206.549 263.93L205.779 261.787L205.497 261.001L197.025 261.78L194.421 262.023L194.647 262.852L194.935 263.923L200.223 283.53L206.036 281.522L204.691 276.52L208.213 278.157L220.854 273.126ZM203.982 280.022L201.199 280.993L196.604 263.973L197.061 263.93L204.547 263.216L204.798 263.93L207.879 272.455L215.54 267.882L218.107 271.997L208.244 275.92L202.113 273.062L203.982 280.022Z" fill="black"/>
<path d="M222.598 273.407L195.378 287.104L197.021 293.423L224.241 279.726L222.598 273.407Z" fill="black"/>
<path d="M138.498 103.57H89.6934V105.713H138.498V103.57Z" fill="black"/>
<path d="M131.52 126.706H103.634V128.85H131.52V126.706Z" fill="black"/>
<path d="M127.767 157.309H85.401V159.453H127.767V157.309Z" fill="black"/>
<path d="M214.79 82.334L209.229 48.0368L207.725 48.5084L213.43 83.6416L237.613 104.863L232.104 113.873L202.955 99.354L198.847 76.0033L196.1 60.4052L194.601 60.9197L197.168 75.4388C183.639 99.9899 159.819 89.8079 154.736 87.2642L195.813 45.1073L194.899 43.3781L151.28 88.1431L179.279 127.892L200.757 95.8099L201.676 101.033L232.602 116.403L239.924 104.399L214.79 82.334ZM179.233 124.734L154.402 89.4864C159.414 91.9547 164.656 93.3987 169.965 93.7735C170.65 93.8164 171.334 93.8379 172.019 93.8379C182.709 93.8379 191.495 88.4503 197.625 78.1183L200.29 93.2591L179.233 124.734Z" fill="black"/>
<path d="M269.848 128.164L278.464 160.946H311.125L322.077 129.728L269.848 128.164ZM292.107 130.979L291.753 131.365L293.996 135.352L284.415 145.855L278.146 130.557L292.107 130.979ZM297.514 158.802H288.122L289.324 157.845L285.185 147.742L294.941 137.024L302.427 150.314L297.2 158.424L297.514 158.802ZM303.393 152.007L307.223 158.802H299.008L303.393 152.007ZM272.072 130.379L277.53 130.543L276.657 131.257L283.193 147.22L278.531 152.336L279.486 154.015L283.969 149.106L287.948 158.824H279.542L272.072 130.379ZM310.165 158.802H307.598L308.594 157.716L304.461 150.385L312.291 138.167L311.141 136.738L303.47 148.649L296.158 135.68L297.185 134.566L296.235 132.879L295.208 133.994L293.514 130.993L319.613 131.772L310.165 158.802Z" fill="black"/>
<path d="M179.747 20.1989C165.873 0.896702 143.383 0.896702 129.51 20.1989L116.011 38.9838L154.936 93.1519L156.025 91.6371L126.645 50.752L145.792 29.5592C150.356 24.5249 151.329 15.4245 148.015 8.75939C150.197 8.16276 152.415 7.86363 154.639 7.86624C163.651 7.83087 172.299 12.8116 178.658 21.6994L194.842 44.2355L195.931 42.7207L179.747 20.1989ZM148.379 18.8413C148.127 22.3952 146.846 25.6531 144.831 27.8658L125.551 49.2229L118.188 38.9838L130.598 21.6994C134.94 15.6358 140.388 11.3369 146.356 9.2667C147.909 11.9642 148.636 15.4038 148.379 18.8413Z" fill="black"/>
<path d="M204.917 159.938L191.752 185.836L193.015 187.078L206.179 161.181L204.917 159.938Z" fill="white"/>
<path d="M232.602 156.837C213.532 156.552 184.578 156.294 182.976 156.773C183.092 156.731 183.197 156.644 183.279 156.523L182.191 155.008C182.529 154.537 182.755 154.222 207.864 154.415C220.125 154.508 232.51 154.694 232.607 154.694L232.602 156.837Z" fill="white"/>
<path d="M218.236 245.131L173.133 145.812L178.509 139.996L179.454 141.69L175.182 146.313L219.54 243.988L218.236 245.131Z" fill="white"/>
<path d="M153.227 179.538L152.713 177.516C159.825 174.079 164.708 168.306 165.473 162.461C165.847 159.503 165.072 156.83 163.229 154.73C156.59 147.17 160.61 130.436 163.593 123.498C163.874 122.85 163.921 122.058 163.722 121.354C162.438 115.638 151.291 107.657 147.101 105.056L147.733 103.098C148.374 103.498 163.439 112.951 165.19 120.711C165.517 121.989 165.418 123.404 164.918 124.57C161.498 132.494 158.916 147.013 164.204 153.043C166.474 155.623 167.46 159.095 166.987 162.811C166.125 169.449 160.852 175.844 153.227 179.538Z" fill="white"/>
<path d="M174.751 232.484L174.093 230.548C174.186 230.491 183.079 224.617 186.144 218.93C186.649 218.153 186.794 217.046 186.519 216.072C185.533 212.578 179.798 209.191 174.822 207.926C174.016 207.726 172.923 207.312 172.676 206.04C172.373 204.475 173.575 203.06 175.244 201.095C177.498 198.43 180.301 195.115 179.593 191.485C179.486 190.948 179.199 190.516 178.822 190.327C175.136 188.184 162.684 196.858 158.197 200.381L157.442 198.516C159.157 197.165 174.386 185.419 179.413 188.348C180.238 188.795 180.86 189.765 181.087 190.956C182.057 195.901 178.704 199.866 176.255 202.76C175.48 203.675 174.443 204.904 174.227 205.49C174.509 205.676 174.811 205.799 175.12 205.854C179.526 206.969 186.586 210.413 187.957 215.321C188.423 216.983 188.203 218.867 187.382 220.237C184.08 226.332 175.131 232.241 174.751 232.484Z" fill="white"/>
<path d="M221.676 263.745C221.604 263.588 214.58 247.968 209.476 244.417C207.987 243.381 207.612 243.552 207.597 243.567C207.376 244.074 207.92 247.003 208.315 249.147C208.805 251.644 209.203 254.174 209.507 256.728C209.661 258.157 209.733 259.815 208.875 260.494C207.715 261.408 206.174 259.629 203.104 256.092C199.628 252.098 194.889 246.618 189.754 244.481C187.669 243.617 186.16 243.824 185.256 245.103C182.925 248.404 184.532 258.264 185.348 261.787L183.88 262.444C183.746 261.88 180.702 248.504 184.152 243.602C185.487 241.709 187.52 241.316 190.196 242.43C195.613 244.688 200.511 250.326 204.085 254.442C205.548 256.128 207.335 258.186 208.054 258.529C208.073 258.036 208.051 257.542 207.987 257.057C207.687 254.573 207.298 252.112 206.821 249.683C206.056 245.553 205.599 243.066 206.652 241.88C207.535 240.887 208.921 241.637 210.164 242.502C215.658 246.325 222.687 261.951 223 262.616L221.676 263.745Z" fill="white"/>
<path d="M221.691 220.159C220.151 218.615 206.678 204.896 207.381 197.966C207.489 196.908 207.956 195.486 209.558 194.686C210.518 194.207 211.54 193.721 212.593 193.221C217.162 191.078 224.063 187.769 224.341 185.076C224.413 184.361 223.827 183.646 223.314 183.139C220.541 180.438 219.288 176.516 220.115 173.136C220.628 171.114 222.641 166.469 230.764 167.005L230.687 169.149C225.778 168.827 222.369 170.578 221.573 173.836C220.972 176.28 221.999 179.245 224.197 181.381C225.445 182.596 225.999 183.939 225.855 185.376C225.475 189.098 220.551 191.699 213.075 195.25C212.048 195.751 211.022 196.229 210.066 196.679C209.111 197.13 208.942 197.801 208.896 198.244C208.464 202.531 217.06 212.863 222.579 218.394L221.691 220.159Z" fill="white"/>
<path d="M190.206 149.757C189.358 149.785 188.523 149.47 187.803 148.849C184.393 145.82 185.749 136.466 185.831 136.073L187.336 136.509C186.992 138.817 186.545 145.191 188.629 147.041C189.959 148.22 192.958 148.142 199.705 141.104L200.629 142.819C196.182 147.456 192.737 149.757 190.206 149.757Z" fill="white"/>
<path d="M239.185 105.635L237.536 104.634L237.47 104.77L236.571 106.578L233.141 113.516L233.901 114.23L238.82 118.796L240.36 120.225L243.996 123.598L249.325 115.509L250.558 113.637L251.071 112.859L239.185 105.635ZM248.478 113.609L247.42 115.216L243.754 120.783L240.36 117.632L238.82 116.202L235.303 112.937L237.793 107.935L238.091 107.328H238.142L247.616 113.044L248.478 113.609Z" fill="black"/>
<path d="M86.733 8.85244L56.3333 39.1417L78.1128 81.4645L108.513 51.1753L86.733 8.85244Z" fill="#BAA7E4"/>
<path d="M279.896 38.8917L266.07 52.6671L275.975 71.9153L289.801 58.1399L279.896 38.8917Z" fill="#BE7880"/>
<path d="M89.0133 308.224C1.3658 308.224 0.44671 307.445 0 307.074L0.790728 305.237C0.748969 305.201 0.704121 305.172 0.657228 305.151C5.5505 306.845 223.452 305.866 338 305.08V307.224C337.163 307.224 253.279 307.788 170.201 308.067C137.109 308.167 110.461 308.224 89.0133 308.224Z" fill="black"/>
<path d="M82.3385 265.131C82.3385 265.131 71.7253 272.19 70.6522 283.387C69.579 294.584 65.2865 278.907 58.8426 281.143C52.3987 283.38 55.6232 299.807 47.5773 295.327C39.5314 290.847 32.0246 299.057 22.3716 306.523H106.045C106.045 306.523 87.5963 305.087 82.3385 265.131Z" fill="black"/>
<path d="M223.493 305.773C223.493 305.773 233.686 303.537 237.973 297.563C242.26 291.59 247.631 305.773 249.783 301.293C251.934 296.813 250.856 285.623 252.468 287.117C254.08 288.61 256.745 301.293 259.949 296.791C263.153 292.29 256.432 281.329 263.286 270.776C263.286 270.776 267.153 302.336 283.933 305.537L223.493 305.773Z" fill="black"/>
<path d="M92.2277 71.5304L81.214 48.194L65.7435 62.3344L56.6501 70.6443L72.6649 104.584L97.2237 82.141L92.2277 71.5304ZM58.781 71.2588L66.6369 64.0779L80.7519 51.1664L90.9544 72.7808L95.062 81.5123L73.0757 101.605L58.781 71.2588Z" fill="black"/>
</svg>
